<?xml version="1.0" encoding="iso-8859-1"?>
<!-- Uploaded to: SVG Repo, www.svgrepo.com, Generator: SVG Repo Mixer Tools -->
<svg height="800px" width="800px" version="1.1" id="Layer_1" xmlns="http://www.w3.org/2000/svg" xmlns:xlink="http://www.w3.org/1999/xlink" 
	 viewBox="0 0 504 504" xml:space="preserve">
<path style="fill:#54B265;" d="M252,4C115.2,4,4,115.2,4,252s111.2,248,248,248s248-111.2,248-248S388.8,4,252,4z"/>
<path style="fill:#F4EFEF;" d="M204,269.6V364h-32.8c-8.8,0-15.6,5.2-15.6,14s7.2,14,15.6,14h34.4c0,8,7.2,15.6,15.6,15.6
	c8.8,0,15.6-7.6,15.6-15.6H256c0,8,7.2,16.4,16,16.4s16-6.4,16-14.8v-1.2c36-6.8,62.4-38,62.4-75.2c0-37.6-26.4-68.8-62.4-75.2v-94
	h37.6c8.8,0,15.6-5.2,15.6-14s-7.2-14-15.6-14h-38c0-8-7.2-15.6-15.6-15.6c-8.8,0-15.6,7.6-15.6,15.6h-19.2c0-8-8-16.4-16.4-16.4
	c-8.8,0-16.4,6-16.4,14.8v3.6c-36,8-59.6,36.4-59.6,72.8S168,262,204,269.6z M288,274c16,6,30.8,22.8,30.8,42.8S304,353.6,288,359.6
	V274z M236,148h20v92h-20V148z M236,272h20v92h-20V272z M204,153.2v83.6c-16-6.8-28-22.8-28-42C176,176,188,160,204,153.2z"/>
<path d="M225.2,413.6c-9.2,0-17.2-6.8-19.2-15.6h-30.8c-11.6,0-19.6-7.6-19.6-18s8.4-18,19.6-18H198v-93.2c-36-9.2-59.6-40-59.6-78
	c0-34.8,25.2-62.8,64.4-72.4c0.8-4,3.2-8,6.4-11.2c4-4.4,9.2-6.4,14-6.4c9.6,0,19.2,8,21.6,17.2h12.4c2-8.8,10-15.6,19.2-15.6
	s17.2,6.8,19.2,15.6H330c11.6,0,19.6,7.6,19.6,18s-8.4,18-19.6,18h-39.6v80.4c36.4,8.4,62.4,40.8,62.4,78.8
	c0,37.6-26,70.4-62.4,78.8c-0.8,10.4-6.4,20-16.8,20c-9.2,0-15.2-5.2-16.4-13.6h-12C242.4,406.8,234.4,413.6,225.2,413.6z
	 M175.2,370c-6,0-11.6,3.2-11.6,10s6,10,11.6,10h34.4c2,0,4,1.6,4,4c0,5.6,5.2,11.6,11.6,11.6s11.6-6,11.6-11.6c0-2,2-4,4-4H260
	c2,0,4,1.6,4,4c0,9.6,6.8,9.6,8.8,9.6c6.4,0,8.8-8.4,8.8-14v-1.2c0-2,1.2-3.6,3.2-4C319.2,378,344,348,344,312.8
	s-24.8-65.2-59.2-71.6c-2-0.4-3.2-2-3.2-4v-87.6c0-2.4,1.6-4,4-4h43.6c6,0,11.6-3.2,11.6-10s-6-10-11.6-10h-38c-2,0-4-1.6-4-4
	c0-5.6-5.2-11.6-11.6-11.6c-6.8,0-11.6,6-11.6,11.6c0,2-2,4-4,4h-19.2c-2,0-4-1.6-4-4c0-6-7.6-13.2-14-13.2c-2.8,0-5.6,1.6-8.4,4
	c-2.8,2.8-4.4,6.4-4.4,8.8c0,2-1.2,3.6-3.2,4c-37.6,8-60.8,33.2-60.8,65.2c0,35.2,22.8,63.6,56.4,70.8c2,0.4,3.2,2,3.2,4v100.4
	c0,2.4-1.6,4-4,4h-26.4V370z M254,370h-20c-2.4,0-4-1.6-4-4v-92c0-2.4,1.6-4,4-4h20c2.4,0,4,1.6,4,4v92C258,368.4,256.4,370,254,370
	z M238,362h12v-84h-12V362z M286,360c-0.8,0-1.6-0.4-2.4-0.8c-1.2-0.8-1.6-2-1.6-3.2v-85.6c0-1.2,0.8-2.4,1.6-3.2
	c1.2-0.8,2.4-0.8,3.6-0.4c16.8,6.4,33.6,24.4,33.6,46.8S304,354,287.2,360.4C286.8,359.6,286.4,360,286,360z M290,276.4v73.2
	c12-6.8,22.8-20.4,22.8-36.8C312.8,296.8,302,283.2,290,276.4z M254,246h-20c-2.4,0-4-1.6-4-4v-92c0-2.4,1.6-4,4-4h20
	c2.4,0,4,1.6,4,4v92C258,244.4,256.4,246,254,246z M238,238h12v-84h-12V238z M202,236.8c-0.4,0-1.2,0-1.6-0.4
	c-18.4-7.6-30.4-26-30.4-45.6s12.4-38,30.4-45.6c1.2-0.4,2.8-0.4,3.6,0.4c1.2,0.8,1.6,2,1.6,3.2v83.6c0,1.2-0.8,2.4-1.6,3.2
	C203.6,236.8,202.8,236.8,202,236.8z M198,155.6c-12.4,7.6-20,21.2-20,35.2c0,14.4,8,28,20,35.2V155.6z"/>
<path d="M252,504C113.2,504,0,390.8,0,252S113.2,0,252,0s252,113.2,252,252S390.8,504,252,504z M252,8C117.6,8,8,117.6,8,252
	s109.6,244,244,244s244-109.6,244-244S386.4,8,252,8z"/>
<path d="M252,472.4c-121.6,0-220.4-98.8-220.4-220.4S130.4,31.6,252,31.6c51.6,0,101.6,18,141.2,51.2c1.6,1.6,2,4,0.4,5.6
	s-4,2-5.6,0.4c-38-31.6-86.4-49.2-136-49.2C134.8,39.6,39.6,134.8,39.6,252c0,117.2,95.2,212.4,212.4,212.4S464.4,369.2,464.4,252
	c0-49.6-17.6-98-49.2-136c-1.6-1.6-1.2-4.4,0.4-5.6c1.6-1.6,4.4-1.2,5.6,0.4c32.8,39.6,51.2,89.6,51.2,141.2
	C472.4,373.6,373.6,472.4,252,472.4z"/>
</svg>