<svg xmlns="http://www.w3.org/2000/svg" xmlns:xlink="http://www.w3.org/1999/xlink" viewBox="0 0 30 30">
  <defs>
    <clipPath id="clip-Artboard_46">
      <rect width="30" height="30"/>
    </clipPath>
  </defs>
  <g id="Artboard_46" data-name="Artboard – 46" clip-path="url(#clip-Artboard_46)">
    <g id="Group_15604" data-name="Group 15604" transform="translate(-106.559 -37.356)">
      <g id="Group_2738" data-name="Group 2738" transform="translate(106.567 37.356)">
        <rect id="Rectangle_1079" data-name="Rectangle 1079" width="24.109" height="27.818" rx="2" transform="translate(3.698 2.182)" fill="#fff"/>
        <path id="Icon_awesome-facebook-square" data-name="Icon awesome-facebook-square" d="M26.778,2.25H3.213A3.213,3.213,0,0,0,0,5.463V29.028a3.213,3.213,0,0,0,3.213,3.213H12.4v-10.2H8.184v-4.8H12.4V13.588c0-4.161,2.477-6.459,6.271-6.459a25.55,25.55,0,0,1,3.717.324v4.084H20.3a2.4,2.4,0,0,0-2.706,2.593v3.116h4.6l-.736,4.8H17.59v10.2h9.188a3.213,3.213,0,0,0,3.213-3.213V5.463A3.213,3.213,0,0,0,26.778,2.25Z" transform="translate(0 -2.25)" fill="#3f65b5"/>
      </g>
    </g>
  </g>
</svg>
