<svg xmlns="http://www.w3.org/2000/svg" xmlns:xlink="http://www.w3.org/1999/xlink" viewBox="0 0 26 26">
  <defs>
    <clipPath id="clip-Artboard_46">
      <rect width="26" height="26"/>
    </clipPath>
  </defs>
  <g id="Artboard_46" data-name="Artboard – 46" clip-path="url(#clip-Artboard_46)">
    <g id="Group_15603" data-name="Group 15603" transform="translate(-109.965 -95.287)">
      <g id="Group_2739" data-name="Group 2739" transform="translate(110.225 95.287)">
        <g id="google-icon" transform="translate(0)">
          <path id="Path_853" data-name="Path 853" d="M143.03,109.419a11.14,11.14,0,0,0-.274-2.658H130.55v4.824h7.164a6.353,6.353,0,0,1-2.658,4.218l-.024.162,3.859,2.99.267.027a12.711,12.711,0,0,0,3.871-9.562" transform="translate(-117.55 -96.13)" fill="#4285f4"/>
          <path id="Path_854" data-name="Path 854" d="M25.538,166.8a12.391,12.391,0,0,0,8.609-3.149l-4.1-3.178a7.694,7.694,0,0,1-4.507,1.3,7.826,7.826,0,0,1-7.4-5.4l-.152.013-4.013,3.106-.052.146A12.991,12.991,0,0,0,25.538,166.8" transform="translate(-12.538 -140.799)" fill="#34a853"/>
          <path id="Path_855" data-name="Path 855" d="M5.6,79.782a8,8,0,0,1-.433-2.571A8.41,8.41,0,0,1,5.59,74.64l-.007-.172L1.52,71.312l-.133.063a12.973,12.973,0,0,0,0,11.671L5.6,79.782" transform="translate(0 -64.211)" fill="#fbbc05"/>
          <path id="Path_856" data-name="Path 856" d="M25.538,5.027a7.2,7.2,0,0,1,5.027,1.936L34.234,3.38A12.49,12.49,0,0,0,25.538,0,12.991,12.991,0,0,0,13.925,7.164l4.2,3.264a7.858,7.858,0,0,1,7.41-5.4" transform="translate(-12.538)" fill="#eb4335"/>
        </g>
      </g>
    </g>
  </g>
</svg>
